<?xml version="1.0" encoding="UTF-8"?>
<svg width="512" height="512" viewBox="0 0 512 512" xmlns="http://www.w3.org/2000/svg" role="img" aria-label="Task manager logo">
  <!-- Background circle (primary color) -->
  <rect x="0" y="0" width="512" height="512" rx="40" ry="40" fill="#2984ff"/>

  <!-- Subtle inner gradient to give modern feel -->
  <defs>
    <linearGradient id="bgGrad" x1="0" y1="0" x2="1" y2="1">
      <stop offset="0" stop-color="#3aa0ff" stop-opacity="1"/>
      <stop offset="1" stop-color="#1f73e6" stop-opacity="1"/>
    </linearGradient>

    <filter id="softShadow" x="-50%" y="-50%" width="200%" height="200%">
      <feDropShadow dx="0" dy="8" stdDeviation="18" flood-color="#0b2b66" flood-opacity="0.12"/>
    </filter>
  </defs>

  <!-- Use gradient over base for depth -->
  <rect x="0" y="0" width="512" height="512" rx="40" ry="40" fill="url(#bgGrad)"/>

  <!-- White document (rounded rectangle) -->
  <g transform="translate(78,70)">
    <rect x="0" y="0" width="300" height="370" rx="28" ry="28" fill="#ffffff" filter="url(#softShadow)"/>

    <!-- Three horizontal lines (task lines) -->
    <rect x="98" y="58" width="160" height="22" rx="11" fill="#e9f2ff"/>
    <rect x="98" y="128" width="130" height="22" rx="11" fill="#e9f2ff"/>
    <rect x="98" y="198" width="110" height="22" rx="11" fill="#e9f2ff"/>

    <!-- Colored bullet markers -->
    <circle cx="60" cy="69" r="16" fill="#ff5a5f"/>   <!-- red/orange -->
    <circle cx="60" cy="139" r="16" fill="#ffbe2e"/>  <!-- yellow -->
    <circle cx="60" cy="209" r="16" fill="#2ecc71"/>  <!-- green -->

    <!-- Small decorative accent lines (modern) -->
    <rect x="98" y="98" width="50" height="10" rx="5" fill="#f1f8ff"/>
    <rect x="98" y="168" width="30" height="10" rx="5" fill="#f1f8ff"/>
  </g>

  <!-- Overlapping check circle -->
  <g transform="translate(290,260)">
    <!-- Outer circle with slight shadow -->
    <circle cx="86" cy="86" r="86" fill="#00c08b" filter="url(#softShadow)"/>
    <!-- White check -->
    <path d="M45 86c0 0 18 18 30 30 3 3 8 3 11 0 3-3 3-8 0-11-10-10-28-27-28-27" fill="#ffffff" transform="translate(6,12) scale(1.6)"/>
    <!-- Better shaped check (alternate, crisp) -->
    <path d="M48 86 L70 108 L120 58" stroke="#ffffff" stroke-width="12" stroke-linecap="round" stroke-linejoin="round" fill="none"/>
  </g>

  <!-- Thin outer stroke for contrast -->
  <rect x="1.5" y="1.5" width="509" height="509" rx="40" ry="40" fill="none" stroke="#1b65d6" stroke-opacity="0.18" stroke-width="3"/>
</svg>